<?xml version="1.0" standalone="no"?>
<!DOCTYPE svg PUBLIC "-//W3C//DTD SVG 20010904//EN"
 "http://www.w3.org/TR/2001/REC-SVG-20010904/DTD/svg10.dtd">
<svg version="1.0" xmlns="http://www.w3.org/2000/svg"
 width="1000.000000pt" height="1000.000000pt" viewBox="0 0 1000.000000 1000.000000"
 preserveAspectRatio="xMidYMid meet">
<metadata>
Created by potrace 1.11, written by Peter Selinger 2001-2013
</metadata>
<g transform="translate(0.000000,1000.000000) scale(0.100000,-0.100000)"
fill="#000000" stroke="none">
<path d="M4858 9955 c-2 -1 -70 -5 -153 -8 -82 -4 -159 -8 -170 -11 -11 -2
-51 -7 -90 -10 -224 -23 -567 -91 -810 -161 -304 -89 -506 -167 -793 -306
-512 -248 -923 -541 -1327 -944 -190 -189 -217 -218 -331 -355 -549 -658 -944
-1522 -1074 -2350 -5 -36 -12 -74 -14 -85 -10 -51 -38 -323 -45 -440 -9 -141
-7 -550 3 -655 4 -36 9 -90 12 -120 80 -816 357 -1595 806 -2270 191 -286 362
-494 618 -751 102 -102 214 -210 249 -240 35 -30 69 -59 75 -64 6 -6 54 -45
106 -86 688 -545 1478 -888 2360 -1024 14 -2 66 -9 115 -15 50 -6 106 -13 125
-15 154 -19 580 -26 800 -12 515 31 1029 147 1530 344 273 107 681 325 949
506 420 284 855 701 1174 1123 391 520 691 1148 846 1774 59 242 84 381 126
721 26 214 26 774 0 969 -3 19 -8 62 -10 95 -6 68 -61 409 -76 470 -117 484
-212 758 -394 1130 -247 509 -537 916 -940 1321 -235 238 -415 390 -670 571
-639 453 -1437 763 -2201 858 -180 22 -197 24 -304 30 -93 6 -487 14 -492 10z
m300 -2146 c121 -10 219 -31 290 -61 49 -20 66 -23 57 -8 -8 13 -3 13 31 -4
16 -8 54 -16 84 -17 30 -1 60 -5 65 -9 6 -4 37 -15 70 -25 68 -19 146 -57 164
-79 7 -8 38 -20 69 -26 107 -21 194 -62 237 -110 23 -25 106 -70 130 -70 9 0
13 -4 10 -10 -3 -5 -2 -10 3 -10 11 0 67 -54 107 -103 16 -20 47 -44 69 -52
42 -17 246 -214 246 -237 0 -8 16 -30 36 -49 34 -32 84 -119 84 -147 0 -7 15
-26 34 -43 43 -38 90 -107 113 -168 9 -25 29 -67 44 -92 15 -25 47 -104 71
-175 49 -140 48 -136 48 -161 0 -9 3 -13 7 -9 14 14 80 -209 89 -301 3 -32 14
-85 24 -119 10 -33 21 -80 25 -105 3 -24 8 -53 10 -64 2 -11 4 -68 4 -127 1
-89 4 -108 16 -108 22 0 22 -491 0 -513 -11 -12 -12 -17 -2 -20 7 -3 5 -6 -5
-6 -16 -1 -18 -13 -19 -103 -1 -118 -3 -135 -29 -238 -10 -41 -21 -108 -25
-149 -3 -41 -17 -108 -31 -149 -15 -41 -28 -89 -30 -106 -14 -100 -42 -182
-79 -231 -12 -17 -26 -46 -30 -65 -4 -19 -13 -46 -21 -60 -8 -14 -23 -50 -34
-81 -11 -30 -33 -68 -48 -85 -16 -16 -37 -53 -48 -82 -19 -55 -76 -132 -98
-132 -6 0 -17 -19 -23 -43 -7 -23 -24 -56 -40 -72 -15 -17 -37 -47 -48 -67
-21 -38 -78 -108 -155 -189 -25 -26 -61 -66 -80 -88 -19 -22 -61 -55 -93 -73
-85 -48 -118 -69 -167 -105 -24 -18 -48 -33 -55 -33 -6 0 -32 -13 -57 -29 -25
-16 -59 -32 -76 -36 -17 -3 -36 -13 -43 -21 -22 -27 -109 -65 -178 -78 -36 -8
-104 -29 -151 -48 -124 -52 -203 -74 -365 -103 -16 -3 -88 -8 -160 -12 -71 -3
-137 -9 -146 -14 -8 -4 -372 -8 -807 -9 l-792 -1 0 2777 0 2777 793 -7 c435
-4 843 -11 905 -17z"/>
<path d="M4400 5060 l0 -1909 33 -5 c96 -15 408 -21 503 -10 38 4 55 2 65 -9
12 -13 19 -13 54 1 22 8 90 17 155 20 101 4 118 7 142 27 27 23 65 39 167 70
29 9 69 27 90 40 20 13 51 30 69 36 19 6 45 22 58 34 14 13 45 33 70 44 24 12
44 28 44 36 0 23 67 91 111 113 32 16 46 32 68 79 15 32 43 72 62 88 19 17 35
38 35 48 3 35 4 39 16 35 6 -2 23 17 36 44 13 26 35 57 50 68 19 16 23 23 14
32 -18 18 -15 36 5 34 14 -1 18 7 18 34 0 24 4 34 13 32 9 -2 12 6 11 20 -2
13 0 29 4 35 5 7 10 23 12 34 3 12 18 51 35 86 16 36 30 82 31 102 0 20 11 77
25 126 13 50 25 97 27 105 1 8 7 18 12 22 6 5 10 155 9 420 -1 599 0 589 -40
674 -19 39 -34 80 -34 90 0 10 -11 42 -24 69 -12 28 -33 83 -45 123 -13 40
-33 92 -46 115 -12 23 -28 67 -35 97 -7 30 -18 64 -25 76 -7 11 -19 39 -26 62
-7 23 -18 42 -26 42 -7 0 -13 8 -13 18 0 9 -9 28 -20 42 -11 14 -20 30 -20 35
0 6 -14 21 -32 35 -44 35 -67 60 -84 93 -8 15 -18 27 -23 27 -13 0 -71 61 -87
91 -8 17 -41 41 -85 63 -40 20 -89 50 -109 66 -20 16 -49 32 -66 36 -43 10
-128 46 -136 58 -4 6 -29 12 -55 13 -75 3 -198 22 -244 38 -34 12 -110 15
-405 15 l-364 0 0 -1910z"/>
</g>
</svg>
